<?xml version="1.0" encoding="UTF-8"?>
<!DOCTYPE svg PUBLIC "-//W3C//DTD SVG 1.1//EN" "http://www.w3.org/Graphics/SVG/1.1/DTD/svg11.dtd">
<!-- Creator: CorelDRAW 2020 (64-Bit) -->
<svg xmlns="http://www.w3.org/2000/svg" xml:space="preserve" width="4.2692in" height="3.3588in" version="1.1" style="shape-rendering:geometricPrecision; text-rendering:geometricPrecision; image-rendering:optimizeQuality; fill-rule:evenodd; clip-rule:evenodd"
viewBox="0 0 2811.25 2211.76"
 xmlns:xlink="http://www.w3.org/1999/xlink"
 xmlns:xodm="http://www.corel.com/coreldraw/odm/2003">
 <defs>
  <style type="text/css">
   <![CDATA[
    .fil0 {fill:maroon}
   ]]>
  </style>
 </defs>
 <g id="Layer_x0020_1">
  <metadata id="CorelCorpID_0Corel-Layer"/>
  <g id="_1989371398496">
   <polygon class="fil0" points="162.33,0 317.59,0 317.59,171.76 162.33,171.76 162.33,130.81 162.33,129.28 162.33,86.19 248.05,86.19 204.97,129.28 275.11,129.28 275.11,42.48 162.33,42.48 "/>
   <polygon class="fil0" points="162.33,355.79 317.59,355.79 317.59,184.03 162.33,184.03 162.33,224.99 162.33,226.52 162.33,269.6 248.05,269.6 204.97,226.52 275.11,226.52 275.11,313.31 162.33,313.31 "/>
   <polygon class="fil0" points="155.26,0 -0,0 -0,171.76 155.26,171.76 155.26,130.81 155.26,129.28 155.26,86.19 69.54,86.19 112.63,129.28 42.48,129.28 42.48,42.48 155.26,42.48 "/>
   <polygon class="fil0" points="155.26,355.79 -0,355.79 -0,184.03 155.26,184.03 155.26,224.99 155.26,226.52 155.26,269.6 69.54,269.6 112.63,226.52 42.48,226.52 42.48,313.31 155.26,313.31 "/>
   <polygon class="fil0" points="162.33,371.19 317.59,371.19 317.59,542.95 162.33,542.95 162.33,502 162.33,500.47 162.33,457.38 248.05,457.38 204.97,500.47 275.11,500.47 275.11,413.67 162.33,413.67 "/>
   <polygon class="fil0" points="162.33,726.98 317.59,726.98 317.59,555.23 162.33,555.23 162.33,596.18 162.33,597.71 162.33,640.79 248.05,640.79 204.97,597.71 275.11,597.71 275.11,684.5 162.33,684.5 "/>
   <polygon class="fil0" points="155.26,371.19 -0,371.19 -0,542.95 155.26,542.95 155.26,502 155.26,500.47 155.26,457.38 69.54,457.38 112.63,500.47 42.48,500.47 42.48,413.67 155.26,413.67 "/>
   <polygon class="fil0" points="155.26,726.98 -0,726.98 -0,555.23 155.26,555.23 155.26,596.18 155.26,597.71 155.26,640.79 69.54,640.79 112.63,597.71 42.48,597.71 42.48,684.5 155.26,684.5 "/>
   <polygon class="fil0" points="162.33,742.38 317.59,742.38 317.59,914.14 162.33,914.14 162.33,873.19 162.33,871.66 162.33,828.58 248.05,828.58 204.97,871.66 275.11,871.66 275.11,784.87 162.33,784.87 "/>
   <polygon class="fil0" points="162.33,1098.18 317.59,1098.18 317.59,926.42 162.33,926.42 162.33,967.37 162.33,968.9 162.33,1011.99 248.05,1011.99 204.97,968.9 275.11,968.9 275.11,1055.7 162.33,1055.7 "/>
   <polygon class="fil0" points="155.26,742.38 -0,742.38 -0,914.14 155.26,914.14 155.26,873.19 155.26,871.66 155.26,828.58 69.54,828.58 112.63,871.66 42.48,871.66 42.48,784.87 155.26,784.87 "/>
   <polygon class="fil0" points="155.26,1098.18 -0,1098.18 -0,926.42 155.26,926.42 155.26,967.37 155.26,968.9 155.26,1011.99 69.54,1011.99 112.63,968.9 42.48,968.9 42.48,1055.7 155.26,1055.7 "/>
   <polygon class="fil0" points="162.33,1113.58 317.59,1113.58 317.59,1285.34 162.33,1285.34 162.33,1244.39 162.33,1242.85 162.33,1199.77 248.05,1199.77 204.97,1242.85 275.11,1242.85 275.11,1156.06 162.33,1156.06 "/>
   <polygon class="fil0" points="162.33,1469.37 317.59,1469.37 317.59,1297.61 162.33,1297.61 162.33,1338.56 162.33,1340.1 162.33,1383.18 248.05,1383.18 204.97,1340.1 275.11,1340.1 275.11,1426.89 162.33,1426.89 "/>
   <polygon class="fil0" points="155.26,1113.58 -0,1113.58 -0,1285.34 155.26,1285.34 155.26,1244.39 155.26,1242.85 155.26,1199.77 69.54,1199.77 112.63,1242.85 42.48,1242.85 42.48,1156.06 155.26,1156.06 "/>
   <polygon class="fil0" points="155.26,1469.37 -0,1469.37 -0,1297.61 155.26,1297.61 155.26,1338.56 155.26,1340.1 155.26,1383.18 69.54,1383.18 112.63,1340.1 42.48,1340.1 42.48,1426.89 155.26,1426.89 "/>
   <polygon class="fil0" points="162.33,1484.77 317.59,1484.77 317.59,1656.53 162.33,1656.53 162.33,1615.58 162.33,1614.04 162.33,1570.96 248.05,1570.96 204.97,1614.04 275.11,1614.04 275.11,1527.25 162.33,1527.25 "/>
   <polygon class="fil0" points="162.33,1840.56 317.59,1840.56 317.59,1668.81 162.33,1668.81 162.33,1709.76 162.33,1711.29 162.33,1754.37 248.05,1754.37 204.97,1711.29 275.11,1711.29 275.11,1798.08 162.33,1798.08 "/>
   <polygon class="fil0" points="155.26,1484.77 -0,1484.77 -0,1656.53 155.26,1656.53 155.26,1615.58 155.26,1614.04 155.26,1570.96 69.54,1570.96 112.63,1614.04 42.48,1614.04 42.48,1527.25 155.26,1527.25 "/>
   <polygon class="fil0" points="155.26,1840.56 -0,1840.56 -0,1668.81 155.26,1668.81 155.26,1709.76 155.26,1711.29 155.26,1754.37 69.54,1754.37 112.63,1711.29 42.48,1711.29 42.48,1798.08 155.26,1798.08 "/>
   <polygon class="fil0" points="162.33,1855.96 317.59,1855.96 317.59,2027.72 162.33,2027.72 162.33,1986.77 162.33,1985.24 162.33,1942.15 248.05,1942.15 204.97,1985.24 275.11,1985.24 275.11,1898.44 162.33,1898.44 "/>
   <polygon class="fil0" points="162.33,2211.76 317.59,2211.76 317.59,2040 162.33,2040 162.33,2080.95 162.33,2082.48 162.33,2125.57 248.05,2125.57 204.97,2082.48 275.11,2082.48 275.11,2169.28 162.33,2169.28 "/>
   <polygon class="fil0" points="155.26,1855.96 -0,1855.96 -0,2027.72 155.26,2027.72 155.26,1986.77 155.26,1985.24 155.26,1942.15 69.54,1942.15 112.63,1985.24 42.48,1985.24 42.48,1898.44 155.26,1898.44 "/>
   <polygon class="fil0" points="155.26,2211.76 -0,2211.76 -0,2040 155.26,2040 155.26,2080.95 155.26,2082.48 155.26,2125.57 69.54,2125.57 112.63,2082.48 42.48,2082.48 42.48,2169.28 155.26,2169.28 "/>
   <g>
    <g>
     <polygon class="fil0" points="518.57,0 673.83,0 673.83,171.76 518.57,171.76 518.57,130.81 518.57,129.28 518.57,86.19 604.29,86.19 561.2,129.28 631.35,129.28 631.35,42.48 518.57,42.48 "/>
     <polygon class="fil0" points="518.57,355.79 673.83,355.79 673.83,184.03 518.57,184.03 518.57,224.99 518.57,226.52 518.57,269.6 604.29,269.6 561.2,226.52 631.35,226.52 631.35,313.31 518.57,313.31 "/>
     <polygon class="fil0" points="511.49,0 356.24,0 356.24,171.76 511.49,171.76 511.49,130.81 511.49,129.28 511.49,86.19 425.78,86.19 468.86,129.28 398.72,129.28 398.72,42.48 511.49,42.48 "/>
     <polygon class="fil0" points="511.49,355.79 356.24,355.79 356.24,184.03 511.49,184.03 511.49,224.99 511.49,226.52 511.49,269.6 425.78,269.6 468.86,226.52 398.72,226.52 398.72,313.31 511.49,313.31 "/>
    </g>
    <g>
     <polygon class="fil0" points="518.57,371.19 673.83,371.19 673.83,542.95 518.57,542.95 518.57,502 518.57,500.47 518.57,457.38 604.29,457.38 561.2,500.47 631.35,500.47 631.35,413.67 518.57,413.67 "/>
     <polygon class="fil0" points="518.57,726.98 673.83,726.98 673.83,555.23 518.57,555.23 518.57,596.18 518.57,597.71 518.57,640.79 604.29,640.79 561.2,597.71 631.35,597.71 631.35,684.5 518.57,684.5 "/>
     <polygon class="fil0" points="511.49,371.19 356.24,371.19 356.24,542.95 511.49,542.95 511.49,502 511.49,500.47 511.49,457.38 425.78,457.38 468.86,500.47 398.72,500.47 398.72,413.67 511.49,413.67 "/>
     <polygon class="fil0" points="511.49,726.98 356.24,726.98 356.24,555.23 511.49,555.23 511.49,596.18 511.49,597.71 511.49,640.79 425.78,640.79 468.86,597.71 398.72,597.71 398.72,684.5 511.49,684.5 "/>
    </g>
    <g>
     <polygon class="fil0" points="518.57,742.38 673.83,742.38 673.83,914.14 518.57,914.14 518.57,873.19 518.57,871.66 518.57,828.58 604.29,828.58 561.2,871.66 631.35,871.66 631.35,784.87 518.57,784.87 "/>
     <polygon class="fil0" points="518.57,1098.18 673.83,1098.18 673.83,926.42 518.57,926.42 518.57,967.37 518.57,968.9 518.57,1011.99 604.29,1011.99 561.2,968.9 631.35,968.9 631.35,1055.7 518.57,1055.7 "/>
     <polygon class="fil0" points="511.49,742.38 356.24,742.38 356.24,914.14 511.49,914.14 511.49,873.19 511.49,871.66 511.49,828.58 425.78,828.58 468.86,871.66 398.72,871.66 398.72,784.87 511.49,784.87 "/>
     <polygon class="fil0" points="511.49,1098.18 356.24,1098.18 356.24,926.42 511.49,926.42 511.49,967.37 511.49,968.9 511.49,1011.99 425.78,1011.99 468.86,968.9 398.72,968.9 398.72,1055.7 511.49,1055.7 "/>
    </g>
    <g>
     <polygon class="fil0" points="518.57,1113.58 673.83,1113.58 673.83,1285.34 518.57,1285.34 518.57,1244.39 518.57,1242.85 518.57,1199.77 604.29,1199.77 561.2,1242.85 631.35,1242.85 631.35,1156.06 518.57,1156.06 "/>
     <polygon class="fil0" points="518.57,1469.37 673.83,1469.37 673.83,1297.61 518.57,1297.61 518.57,1338.56 518.57,1340.1 518.57,1383.18 604.29,1383.18 561.2,1340.1 631.35,1340.1 631.35,1426.89 518.57,1426.89 "/>
     <polygon class="fil0" points="511.49,1113.58 356.24,1113.58 356.24,1285.34 511.49,1285.34 511.49,1244.39 511.49,1242.85 511.49,1199.77 425.78,1199.77 468.86,1242.85 398.72,1242.85 398.72,1156.06 511.49,1156.06 "/>
     <polygon class="fil0" points="511.49,1469.37 356.24,1469.37 356.24,1297.61 511.49,1297.61 511.49,1338.56 511.49,1340.1 511.49,1383.18 425.78,1383.18 468.86,1340.1 398.72,1340.1 398.72,1426.89 511.49,1426.89 "/>
    </g>
    <g>
     <polygon class="fil0" points="518.57,1484.77 673.83,1484.77 673.83,1656.53 518.57,1656.53 518.57,1615.58 518.57,1614.04 518.57,1570.96 604.29,1570.96 561.2,1614.04 631.35,1614.04 631.35,1527.25 518.57,1527.25 "/>
     <polygon class="fil0" points="518.57,1840.56 673.83,1840.56 673.83,1668.81 518.57,1668.81 518.57,1709.76 518.57,1711.29 518.57,1754.37 604.29,1754.37 561.2,1711.29 631.35,1711.29 631.35,1798.08 518.57,1798.08 "/>
     <polygon class="fil0" points="511.49,1484.77 356.24,1484.77 356.24,1656.53 511.49,1656.53 511.49,1615.58 511.49,1614.04 511.49,1570.96 425.78,1570.96 468.86,1614.04 398.72,1614.04 398.72,1527.25 511.49,1527.25 "/>
     <polygon class="fil0" points="511.49,1840.56 356.24,1840.56 356.24,1668.81 511.49,1668.81 511.49,1709.76 511.49,1711.29 511.49,1754.37 425.78,1754.37 468.86,1711.29 398.72,1711.29 398.72,1798.08 511.49,1798.08 "/>
    </g>
    <g>
     <polygon class="fil0" points="518.57,1855.96 673.83,1855.96 673.83,2027.72 518.57,2027.72 518.57,1986.77 518.57,1985.24 518.57,1942.15 604.29,1942.15 561.2,1985.24 631.35,1985.24 631.35,1898.44 518.57,1898.44 "/>
     <polygon class="fil0" points="518.57,2211.76 673.83,2211.76 673.83,2040 518.57,2040 518.57,2080.95 518.57,2082.48 518.57,2125.57 604.29,2125.57 561.2,2082.48 631.35,2082.48 631.35,2169.28 518.57,2169.28 "/>
     <polygon class="fil0" points="511.49,1855.96 356.24,1855.96 356.24,2027.72 511.49,2027.72 511.49,1986.77 511.49,1985.24 511.49,1942.15 425.78,1942.15 468.86,1985.24 398.72,1985.24 398.72,1898.44 511.49,1898.44 "/>
     <polygon class="fil0" points="511.49,2211.76 356.24,2211.76 356.24,2040 511.49,2040 511.49,2080.95 511.49,2082.48 511.49,2125.57 425.78,2125.57 468.86,2082.48 398.72,2082.48 398.72,2169.28 511.49,2169.28 "/>
    </g>
   </g>
   <g>
    <g>
     <polygon class="fil0" points="874.81,0 1030.06,0 1030.06,171.76 874.81,171.76 874.81,130.81 874.81,129.28 874.81,86.19 960.52,86.19 917.44,129.28 987.58,129.28 987.58,42.48 874.81,42.48 "/>
     <polygon class="fil0" points="874.81,355.79 1030.06,355.79 1030.06,184.03 874.81,184.03 874.81,224.99 874.81,226.52 874.81,269.6 960.52,269.6 917.44,226.52 987.58,226.52 987.58,313.31 874.81,313.31 "/>
     <polygon class="fil0" points="867.73,0 712.47,0 712.47,171.76 867.73,171.76 867.73,130.81 867.73,129.28 867.73,86.19 782.02,86.19 825.1,129.28 754.96,129.28 754.96,42.48 867.73,42.48 "/>
     <polygon class="fil0" points="867.73,355.79 712.47,355.79 712.47,184.03 867.73,184.03 867.73,224.99 867.73,226.52 867.73,269.6 782.02,269.6 825.1,226.52 754.96,226.52 754.96,313.31 867.73,313.31 "/>
    </g>
    <g>
     <polygon class="fil0" points="874.81,371.19 1030.06,371.19 1030.06,542.95 874.81,542.95 874.81,502 874.81,500.47 874.81,457.38 960.52,457.38 917.44,500.47 987.58,500.47 987.58,413.67 874.81,413.67 "/>
     <polygon class="fil0" points="874.81,726.98 1030.06,726.98 1030.06,555.23 874.81,555.23 874.81,596.18 874.81,597.71 874.81,640.79 960.52,640.79 917.44,597.71 987.58,597.71 987.58,684.5 874.81,684.5 "/>
     <polygon class="fil0" points="867.73,371.19 712.47,371.19 712.47,542.95 867.73,542.95 867.73,502 867.73,500.47 867.73,457.38 782.02,457.38 825.1,500.47 754.96,500.47 754.96,413.67 867.73,413.67 "/>
     <polygon class="fil0" points="867.73,726.98 712.47,726.98 712.47,555.23 867.73,555.23 867.73,596.18 867.73,597.71 867.73,640.79 782.02,640.79 825.1,597.71 754.96,597.71 754.96,684.5 867.73,684.5 "/>
    </g>
    <g>
     <polygon class="fil0" points="874.81,742.38 1030.06,742.38 1030.06,914.14 874.81,914.14 874.81,873.19 874.81,871.66 874.81,828.58 960.52,828.58 917.44,871.66 987.58,871.66 987.58,784.87 874.81,784.87 "/>
     <polygon class="fil0" points="874.81,1098.18 1030.06,1098.18 1030.06,926.42 874.81,926.42 874.81,967.37 874.81,968.9 874.81,1011.99 960.52,1011.99 917.44,968.9 987.58,968.9 987.58,1055.7 874.81,1055.7 "/>
     <polygon class="fil0" points="867.73,742.38 712.47,742.38 712.47,914.14 867.73,914.14 867.73,873.19 867.73,871.66 867.73,828.58 782.02,828.58 825.1,871.66 754.96,871.66 754.96,784.87 867.73,784.87 "/>
     <polygon class="fil0" points="867.73,1098.18 712.47,1098.18 712.47,926.42 867.73,926.42 867.73,967.37 867.73,968.9 867.73,1011.99 782.02,1011.99 825.1,968.9 754.96,968.9 754.96,1055.7 867.73,1055.7 "/>
    </g>
    <g>
     <polygon class="fil0" points="874.81,1113.58 1030.06,1113.58 1030.06,1285.34 874.81,1285.34 874.81,1244.39 874.81,1242.85 874.81,1199.77 960.52,1199.77 917.44,1242.85 987.58,1242.85 987.58,1156.06 874.81,1156.06 "/>
     <polygon class="fil0" points="874.81,1469.37 1030.06,1469.37 1030.06,1297.61 874.81,1297.61 874.81,1338.56 874.81,1340.1 874.81,1383.18 960.52,1383.18 917.44,1340.1 987.58,1340.1 987.58,1426.89 874.81,1426.89 "/>
     <polygon class="fil0" points="867.73,1113.58 712.47,1113.58 712.47,1285.34 867.73,1285.34 867.73,1244.39 867.73,1242.85 867.73,1199.77 782.02,1199.77 825.1,1242.85 754.96,1242.85 754.96,1156.06 867.73,1156.06 "/>
     <polygon class="fil0" points="867.73,1469.37 712.47,1469.37 712.47,1297.61 867.73,1297.61 867.73,1338.56 867.73,1340.1 867.73,1383.18 782.02,1383.18 825.1,1340.1 754.96,1340.1 754.96,1426.89 867.73,1426.89 "/>
    </g>
    <g>
     <polygon class="fil0" points="874.81,1484.77 1030.06,1484.77 1030.06,1656.53 874.81,1656.53 874.81,1615.58 874.81,1614.04 874.81,1570.96 960.52,1570.96 917.44,1614.04 987.58,1614.04 987.58,1527.25 874.81,1527.25 "/>
     <polygon class="fil0" points="874.81,1840.56 1030.06,1840.56 1030.06,1668.81 874.81,1668.81 874.81,1709.76 874.81,1711.29 874.81,1754.37 960.52,1754.37 917.44,1711.29 987.58,1711.29 987.58,1798.08 874.81,1798.08 "/>
     <polygon class="fil0" points="867.73,1484.77 712.47,1484.77 712.47,1656.53 867.73,1656.53 867.73,1615.58 867.73,1614.04 867.73,1570.96 782.02,1570.96 825.1,1614.04 754.96,1614.04 754.96,1527.25 867.73,1527.25 "/>
     <polygon class="fil0" points="867.73,1840.56 712.47,1840.56 712.47,1668.81 867.73,1668.81 867.73,1709.76 867.73,1711.29 867.73,1754.37 782.02,1754.37 825.1,1711.29 754.96,1711.29 754.96,1798.08 867.73,1798.08 "/>
    </g>
    <g>
     <polygon class="fil0" points="874.81,1855.96 1030.06,1855.96 1030.06,2027.72 874.81,2027.72 874.81,1986.77 874.81,1985.24 874.81,1942.15 960.52,1942.15 917.44,1985.24 987.58,1985.24 987.58,1898.44 874.81,1898.44 "/>
     <polygon class="fil0" points="874.81,2211.76 1030.06,2211.76 1030.06,2040 874.81,2040 874.81,2080.95 874.81,2082.48 874.81,2125.57 960.52,2125.57 917.44,2082.48 987.58,2082.48 987.58,2169.28 874.81,2169.28 "/>
     <polygon class="fil0" points="867.73,1855.96 712.47,1855.96 712.47,2027.72 867.73,2027.72 867.73,1986.77 867.73,1985.24 867.73,1942.15 782.02,1942.15 825.1,1985.24 754.96,1985.24 754.96,1898.44 867.73,1898.44 "/>
     <polygon class="fil0" points="867.73,2211.76 712.47,2211.76 712.47,2040 867.73,2040 867.73,2080.95 867.73,2082.48 867.73,2125.57 782.02,2125.57 825.1,2082.48 754.96,2082.48 754.96,2169.28 867.73,2169.28 "/>
    </g>
   </g>
   <g>
    <g>
     <polygon class="fil0" points="1231.05,0 1386.3,0 1386.3,171.76 1231.05,171.76 1231.05,130.81 1231.05,129.28 1231.05,86.19 1316.76,86.19 1273.68,129.28 1343.82,129.28 1343.82,42.48 1231.05,42.48 "/>
     <polygon class="fil0" points="1231.05,355.79 1386.3,355.79 1386.3,184.03 1231.05,184.03 1231.05,224.99 1231.05,226.52 1231.05,269.6 1316.76,269.6 1273.68,226.52 1343.82,226.52 1343.82,313.31 1231.05,313.31 "/>
     <polygon class="fil0" points="1223.97,0 1068.71,0 1068.71,171.76 1223.97,171.76 1223.97,130.81 1223.97,129.28 1223.97,86.19 1138.25,86.19 1181.34,129.28 1111.19,129.28 1111.19,42.48 1223.97,42.48 "/>
     <polygon class="fil0" points="1223.97,355.79 1068.71,355.79 1068.71,184.03 1223.97,184.03 1223.97,224.99 1223.97,226.52 1223.97,269.6 1138.25,269.6 1181.34,226.52 1111.19,226.52 1111.19,313.31 1223.97,313.31 "/>
    </g>
    <g>
     <polygon class="fil0" points="1231.05,371.19 1386.3,371.19 1386.3,542.95 1231.05,542.95 1231.05,502 1231.05,500.47 1231.05,457.38 1316.76,457.38 1273.68,500.47 1343.82,500.47 1343.82,413.67 1231.05,413.67 "/>
     <polygon class="fil0" points="1231.05,726.98 1386.3,726.98 1386.3,555.23 1231.05,555.23 1231.05,596.18 1231.05,597.71 1231.05,640.79 1316.76,640.79 1273.68,597.71 1343.82,597.71 1343.82,684.5 1231.05,684.5 "/>
     <polygon class="fil0" points="1223.97,371.19 1068.71,371.19 1068.71,542.95 1223.97,542.95 1223.97,502 1223.97,500.47 1223.97,457.38 1138.25,457.38 1181.34,500.47 1111.19,500.47 1111.19,413.67 1223.97,413.67 "/>
     <polygon class="fil0" points="1223.97,726.98 1068.71,726.98 1068.71,555.23 1223.97,555.23 1223.97,596.18 1223.97,597.71 1223.97,640.79 1138.25,640.79 1181.34,597.71 1111.19,597.71 1111.19,684.5 1223.97,684.5 "/>
    </g>
    <g>
     <polygon class="fil0" points="1231.05,742.38 1386.3,742.38 1386.3,914.14 1231.05,914.14 1231.05,873.19 1231.05,871.66 1231.05,828.58 1316.76,828.58 1273.68,871.66 1343.82,871.66 1343.82,784.87 1231.05,784.87 "/>
     <polygon class="fil0" points="1231.05,1098.18 1386.3,1098.18 1386.3,926.42 1231.05,926.42 1231.05,967.37 1231.05,968.9 1231.05,1011.99 1316.76,1011.99 1273.68,968.9 1343.82,968.9 1343.82,1055.7 1231.05,1055.7 "/>
     <polygon class="fil0" points="1223.97,742.38 1068.71,742.38 1068.71,914.14 1223.97,914.14 1223.97,873.19 1223.97,871.66 1223.97,828.58 1138.25,828.58 1181.34,871.66 1111.19,871.66 1111.19,784.87 1223.97,784.87 "/>
     <polygon class="fil0" points="1223.97,1098.18 1068.71,1098.18 1068.71,926.42 1223.97,926.42 1223.97,967.37 1223.97,968.9 1223.97,1011.99 1138.25,1011.99 1181.34,968.9 1111.19,968.9 1111.19,1055.7 1223.97,1055.7 "/>
    </g>
    <g>
     <polygon class="fil0" points="1231.05,1113.58 1386.3,1113.58 1386.3,1285.34 1231.05,1285.34 1231.05,1244.39 1231.05,1242.85 1231.05,1199.77 1316.76,1199.77 1273.68,1242.85 1343.82,1242.85 1343.82,1156.06 1231.05,1156.06 "/>
     <polygon class="fil0" points="1231.05,1469.37 1386.3,1469.37 1386.3,1297.61 1231.05,1297.61 1231.05,1338.56 1231.05,1340.1 1231.05,1383.18 1316.76,1383.18 1273.68,1340.1 1343.82,1340.1 1343.82,1426.89 1231.05,1426.89 "/>
     <polygon class="fil0" points="1223.97,1113.58 1068.71,1113.58 1068.71,1285.34 1223.97,1285.34 1223.97,1244.39 1223.97,1242.85 1223.97,1199.77 1138.25,1199.77 1181.34,1242.85 1111.19,1242.85 1111.19,1156.06 1223.97,1156.06 "/>
     <polygon class="fil0" points="1223.97,1469.37 1068.71,1469.37 1068.71,1297.61 1223.97,1297.61 1223.97,1338.56 1223.97,1340.1 1223.97,1383.18 1138.25,1383.18 1181.34,1340.1 1111.19,1340.1 1111.19,1426.89 1223.97,1426.89 "/>
    </g>
    <g>
     <polygon class="fil0" points="1231.05,1484.77 1386.3,1484.77 1386.3,1656.53 1231.05,1656.53 1231.05,1615.58 1231.05,1614.04 1231.05,1570.96 1316.76,1570.96 1273.68,1614.04 1343.82,1614.04 1343.82,1527.25 1231.05,1527.25 "/>
     <polygon class="fil0" points="1231.05,1840.56 1386.3,1840.56 1386.3,1668.81 1231.05,1668.81 1231.05,1709.76 1231.05,1711.29 1231.05,1754.37 1316.76,1754.37 1273.68,1711.29 1343.82,1711.29 1343.82,1798.08 1231.05,1798.08 "/>
     <polygon class="fil0" points="1223.97,1484.77 1068.71,1484.77 1068.71,1656.53 1223.97,1656.53 1223.97,1615.58 1223.97,1614.04 1223.97,1570.96 1138.25,1570.96 1181.34,1614.04 1111.19,1614.04 1111.19,1527.25 1223.97,1527.25 "/>
     <polygon class="fil0" points="1223.97,1840.56 1068.71,1840.56 1068.71,1668.81 1223.97,1668.81 1223.97,1709.76 1223.97,1711.29 1223.97,1754.37 1138.25,1754.37 1181.34,1711.29 1111.19,1711.29 1111.19,1798.08 1223.97,1798.08 "/>
    </g>
    <g>
     <polygon class="fil0" points="1231.05,1855.96 1386.3,1855.96 1386.3,2027.72 1231.05,2027.72 1231.05,1986.77 1231.05,1985.24 1231.05,1942.15 1316.76,1942.15 1273.68,1985.24 1343.82,1985.24 1343.82,1898.44 1231.05,1898.44 "/>
     <polygon class="fil0" points="1231.05,2211.76 1386.3,2211.76 1386.3,2040 1231.05,2040 1231.05,2080.95 1231.05,2082.48 1231.05,2125.57 1316.76,2125.57 1273.68,2082.48 1343.82,2082.48 1343.82,2169.28 1231.05,2169.28 "/>
     <polygon class="fil0" points="1223.97,1855.96 1068.71,1855.96 1068.71,2027.72 1223.97,2027.72 1223.97,1986.77 1223.97,1985.24 1223.97,1942.15 1138.25,1942.15 1181.34,1985.24 1111.19,1985.24 1111.19,1898.44 1223.97,1898.44 "/>
     <polygon class="fil0" points="1223.97,2211.76 1068.71,2211.76 1068.71,2040 1223.97,2040 1223.97,2080.95 1223.97,2082.48 1223.97,2125.57 1138.25,2125.57 1181.34,2082.48 1111.19,2082.48 1111.19,2169.28 1223.97,2169.28 "/>
    </g>
   </g>
   <g>
    <g>
     <polygon class="fil0" points="1587.28,0 1742.54,0 1742.54,171.76 1587.28,171.76 1587.28,130.81 1587.28,129.28 1587.28,86.19 1673,86.19 1629.92,129.28 1700.06,129.28 1700.06,42.48 1587.28,42.48 "/>
     <polygon class="fil0" points="1587.28,355.79 1742.54,355.79 1742.54,184.03 1587.28,184.03 1587.28,224.99 1587.28,226.52 1587.28,269.6 1673,269.6 1629.92,226.52 1700.06,226.52 1700.06,313.31 1587.28,313.31 "/>
     <polygon class="fil0" points="1580.21,0 1424.95,0 1424.95,171.76 1580.21,171.76 1580.21,130.81 1580.21,129.28 1580.21,86.19 1494.49,86.19 1537.58,129.28 1467.43,129.28 1467.43,42.48 1580.21,42.48 "/>
     <polygon class="fil0" points="1580.21,355.79 1424.95,355.79 1424.95,184.03 1580.21,184.03 1580.21,224.99 1580.21,226.52 1580.21,269.6 1494.49,269.6 1537.58,226.52 1467.43,226.52 1467.43,313.31 1580.21,313.31 "/>
    </g>
    <g>
     <polygon class="fil0" points="1587.28,371.19 1742.54,371.19 1742.54,542.95 1587.28,542.95 1587.28,502 1587.28,500.47 1587.28,457.38 1673,457.38 1629.92,500.47 1700.06,500.47 1700.06,413.67 1587.28,413.67 "/>
     <polygon class="fil0" points="1587.28,726.98 1742.54,726.98 1742.54,555.23 1587.28,555.23 1587.28,596.18 1587.28,597.71 1587.28,640.79 1673,640.79 1629.92,597.71 1700.06,597.71 1700.06,684.5 1587.28,684.5 "/>
     <polygon class="fil0" points="1580.21,371.19 1424.95,371.19 1424.95,542.95 1580.21,542.95 1580.21,502 1580.21,500.47 1580.21,457.38 1494.49,457.38 1537.58,500.47 1467.43,500.47 1467.43,413.67 1580.21,413.67 "/>
     <polygon class="fil0" points="1580.21,726.98 1424.95,726.98 1424.95,555.23 1580.21,555.23 1580.21,596.18 1580.21,597.71 1580.21,640.79 1494.49,640.79 1537.58,597.71 1467.43,597.71 1467.43,684.5 1580.21,684.5 "/>
    </g>
    <g>
     <polygon class="fil0" points="1587.28,742.38 1742.54,742.38 1742.54,914.14 1587.28,914.14 1587.28,873.19 1587.28,871.66 1587.28,828.58 1673,828.58 1629.92,871.66 1700.06,871.66 1700.06,784.87 1587.28,784.87 "/>
     <polygon class="fil0" points="1587.28,1098.18 1742.54,1098.18 1742.54,926.42 1587.28,926.42 1587.28,967.37 1587.28,968.9 1587.28,1011.99 1673,1011.99 1629.92,968.9 1700.06,968.9 1700.06,1055.7 1587.28,1055.7 "/>
     <polygon class="fil0" points="1580.21,742.38 1424.95,742.38 1424.95,914.14 1580.21,914.14 1580.21,873.19 1580.21,871.66 1580.21,828.58 1494.49,828.58 1537.58,871.66 1467.43,871.66 1467.43,784.87 1580.21,784.87 "/>
     <polygon class="fil0" points="1580.21,1098.18 1424.95,1098.18 1424.95,926.42 1580.21,926.42 1580.21,967.37 1580.21,968.9 1580.21,1011.99 1494.49,1011.99 1537.58,968.9 1467.43,968.9 1467.43,1055.7 1580.21,1055.7 "/>
    </g>
    <g>
     <polygon class="fil0" points="1587.28,1113.58 1742.54,1113.58 1742.54,1285.34 1587.28,1285.34 1587.28,1244.39 1587.28,1242.85 1587.28,1199.77 1673,1199.77 1629.92,1242.85 1700.06,1242.85 1700.06,1156.06 1587.28,1156.06 "/>
     <polygon class="fil0" points="1587.28,1469.37 1742.54,1469.37 1742.54,1297.61 1587.28,1297.61 1587.28,1338.56 1587.28,1340.1 1587.28,1383.18 1673,1383.18 1629.92,1340.1 1700.06,1340.1 1700.06,1426.89 1587.28,1426.89 "/>
     <polygon class="fil0" points="1580.21,1113.58 1424.95,1113.58 1424.95,1285.34 1580.21,1285.34 1580.21,1244.39 1580.21,1242.85 1580.21,1199.77 1494.49,1199.77 1537.58,1242.85 1467.43,1242.85 1467.43,1156.06 1580.21,1156.06 "/>
     <polygon class="fil0" points="1580.21,1469.37 1424.95,1469.37 1424.95,1297.61 1580.21,1297.61 1580.21,1338.56 1580.21,1340.1 1580.21,1383.18 1494.49,1383.18 1537.58,1340.1 1467.43,1340.1 1467.43,1426.89 1580.21,1426.89 "/>
    </g>
    <g>
     <polygon class="fil0" points="1587.28,1484.77 1742.54,1484.77 1742.54,1656.53 1587.28,1656.53 1587.28,1615.58 1587.28,1614.04 1587.28,1570.96 1673,1570.96 1629.92,1614.04 1700.06,1614.04 1700.06,1527.25 1587.28,1527.25 "/>
     <polygon class="fil0" points="1587.28,1840.56 1742.54,1840.56 1742.54,1668.81 1587.28,1668.81 1587.28,1709.76 1587.28,1711.29 1587.28,1754.37 1673,1754.37 1629.92,1711.29 1700.06,1711.29 1700.06,1798.08 1587.28,1798.08 "/>
     <polygon class="fil0" points="1580.21,1484.77 1424.95,1484.77 1424.95,1656.53 1580.21,1656.53 1580.21,1615.58 1580.21,1614.04 1580.21,1570.96 1494.49,1570.96 1537.58,1614.04 1467.43,1614.04 1467.43,1527.25 1580.21,1527.25 "/>
     <polygon class="fil0" points="1580.21,1840.56 1424.95,1840.56 1424.95,1668.81 1580.21,1668.81 1580.21,1709.76 1580.21,1711.29 1580.21,1754.37 1494.49,1754.37 1537.58,1711.29 1467.43,1711.29 1467.43,1798.08 1580.21,1798.08 "/>
    </g>
    <g>
     <polygon class="fil0" points="1587.28,1855.96 1742.54,1855.96 1742.54,2027.72 1587.28,2027.72 1587.28,1986.77 1587.28,1985.24 1587.28,1942.15 1673,1942.15 1629.92,1985.24 1700.06,1985.24 1700.06,1898.44 1587.28,1898.44 "/>
     <polygon class="fil0" points="1587.28,2211.76 1742.54,2211.76 1742.54,2040 1587.28,2040 1587.28,2080.95 1587.28,2082.48 1587.28,2125.57 1673,2125.57 1629.92,2082.48 1700.06,2082.48 1700.06,2169.28 1587.28,2169.28 "/>
     <polygon class="fil0" points="1580.21,1855.96 1424.95,1855.96 1424.95,2027.72 1580.21,2027.72 1580.21,1986.77 1580.21,1985.24 1580.21,1942.15 1494.49,1942.15 1537.58,1985.24 1467.43,1985.24 1467.43,1898.44 1580.21,1898.44 "/>
     <polygon class="fil0" points="1580.21,2211.76 1424.95,2211.76 1424.95,2040 1580.21,2040 1580.21,2080.95 1580.21,2082.48 1580.21,2125.57 1494.49,2125.57 1537.58,2082.48 1467.43,2082.48 1467.43,2169.28 1580.21,2169.28 "/>
    </g>
   </g>
   <g>
    <g>
     <polygon class="fil0" points="1943.52,0 2098.78,0 2098.78,171.76 1943.52,171.76 1943.52,130.81 1943.52,129.28 1943.52,86.19 2029.24,86.19 1986.15,129.28 2056.29,129.28 2056.29,42.48 1943.52,42.48 "/>
     <polygon class="fil0" points="1943.52,355.79 2098.78,355.79 2098.78,184.03 1943.52,184.03 1943.52,224.99 1943.52,226.52 1943.52,269.6 2029.24,269.6 1986.15,226.52 2056.29,226.52 2056.29,313.31 1943.52,313.31 "/>
     <polygon class="fil0" points="1936.44,0 1781.19,0 1781.19,171.76 1936.44,171.76 1936.44,130.81 1936.44,129.28 1936.44,86.19 1850.73,86.19 1893.81,129.28 1823.67,129.28 1823.67,42.48 1936.44,42.48 "/>
     <polygon class="fil0" points="1936.44,355.79 1781.19,355.79 1781.19,184.03 1936.44,184.03 1936.44,224.99 1936.44,226.52 1936.44,269.6 1850.73,269.6 1893.81,226.52 1823.67,226.52 1823.67,313.31 1936.44,313.31 "/>
    </g>
    <g>
     <polygon class="fil0" points="1943.52,371.19 2098.78,371.19 2098.78,542.95 1943.52,542.95 1943.52,502 1943.52,500.47 1943.52,457.38 2029.24,457.38 1986.15,500.47 2056.29,500.47 2056.29,413.67 1943.52,413.67 "/>
     <polygon class="fil0" points="1943.52,726.98 2098.78,726.98 2098.78,555.23 1943.52,555.23 1943.52,596.18 1943.52,597.71 1943.52,640.79 2029.24,640.79 1986.15,597.71 2056.29,597.71 2056.29,684.5 1943.52,684.5 "/>
     <polygon class="fil0" points="1936.44,371.19 1781.19,371.19 1781.19,542.95 1936.44,542.95 1936.44,502 1936.44,500.47 1936.44,457.38 1850.73,457.38 1893.81,500.47 1823.67,500.47 1823.67,413.67 1936.44,413.67 "/>
     <polygon class="fil0" points="1936.44,726.98 1781.19,726.98 1781.19,555.23 1936.44,555.23 1936.44,596.18 1936.44,597.71 1936.44,640.79 1850.73,640.79 1893.81,597.71 1823.67,597.71 1823.67,684.5 1936.44,684.5 "/>
    </g>
    <g>
     <polygon class="fil0" points="1943.52,742.38 2098.78,742.38 2098.78,914.14 1943.52,914.14 1943.52,873.19 1943.52,871.66 1943.52,828.58 2029.24,828.58 1986.15,871.66 2056.29,871.66 2056.29,784.87 1943.52,784.87 "/>
     <polygon class="fil0" points="1943.52,1098.18 2098.78,1098.18 2098.78,926.42 1943.52,926.42 1943.52,967.37 1943.52,968.9 1943.52,1011.99 2029.24,1011.99 1986.15,968.9 2056.29,968.9 2056.29,1055.7 1943.52,1055.7 "/>
     <polygon class="fil0" points="1936.44,742.38 1781.19,742.38 1781.19,914.14 1936.44,914.14 1936.44,873.19 1936.44,871.66 1936.44,828.58 1850.73,828.58 1893.81,871.66 1823.67,871.66 1823.67,784.87 1936.44,784.87 "/>
     <polygon class="fil0" points="1936.44,1098.18 1781.19,1098.18 1781.19,926.42 1936.44,926.42 1936.44,967.37 1936.44,968.9 1936.44,1011.99 1850.73,1011.99 1893.81,968.9 1823.67,968.9 1823.67,1055.7 1936.44,1055.7 "/>
    </g>
    <g>
     <polygon class="fil0" points="1943.52,1113.58 2098.78,1113.58 2098.78,1285.34 1943.52,1285.34 1943.52,1244.39 1943.52,1242.85 1943.52,1199.77 2029.24,1199.77 1986.15,1242.85 2056.29,1242.85 2056.29,1156.06 1943.52,1156.06 "/>
     <polygon class="fil0" points="1943.52,1469.37 2098.78,1469.37 2098.78,1297.61 1943.52,1297.61 1943.52,1338.56 1943.52,1340.1 1943.52,1383.18 2029.24,1383.18 1986.15,1340.1 2056.29,1340.1 2056.29,1426.89 1943.52,1426.89 "/>
     <polygon class="fil0" points="1936.44,1113.58 1781.19,1113.58 1781.19,1285.34 1936.44,1285.34 1936.44,1244.39 1936.44,1242.85 1936.44,1199.77 1850.73,1199.77 1893.81,1242.85 1823.67,1242.85 1823.67,1156.06 1936.44,1156.06 "/>
     <polygon class="fil0" points="1936.44,1469.37 1781.19,1469.37 1781.19,1297.61 1936.44,1297.61 1936.44,1338.56 1936.44,1340.1 1936.44,1383.18 1850.73,1383.18 1893.81,1340.1 1823.67,1340.1 1823.67,1426.89 1936.44,1426.89 "/>
    </g>
    <g>
     <polygon class="fil0" points="1943.52,1484.77 2098.78,1484.77 2098.78,1656.53 1943.52,1656.53 1943.52,1615.58 1943.52,1614.04 1943.52,1570.96 2029.24,1570.96 1986.15,1614.04 2056.29,1614.04 2056.29,1527.25 1943.52,1527.25 "/>
     <polygon class="fil0" points="1943.52,1840.56 2098.78,1840.56 2098.78,1668.81 1943.52,1668.81 1943.52,1709.76 1943.52,1711.29 1943.52,1754.37 2029.24,1754.37 1986.15,1711.29 2056.29,1711.29 2056.29,1798.08 1943.52,1798.08 "/>
     <polygon class="fil0" points="1936.44,1484.77 1781.19,1484.77 1781.19,1656.53 1936.44,1656.53 1936.44,1615.58 1936.44,1614.04 1936.44,1570.96 1850.73,1570.96 1893.81,1614.04 1823.67,1614.04 1823.67,1527.25 1936.44,1527.25 "/>
     <polygon class="fil0" points="1936.44,1840.56 1781.19,1840.56 1781.19,1668.81 1936.44,1668.81 1936.44,1709.76 1936.44,1711.29 1936.44,1754.37 1850.73,1754.37 1893.81,1711.29 1823.67,1711.29 1823.67,1798.08 1936.44,1798.08 "/>
    </g>
    <g>
     <polygon class="fil0" points="1943.52,1855.96 2098.78,1855.96 2098.78,2027.72 1943.52,2027.72 1943.52,1986.77 1943.52,1985.24 1943.52,1942.15 2029.24,1942.15 1986.15,1985.24 2056.29,1985.24 2056.29,1898.44 1943.52,1898.44 "/>
     <polygon class="fil0" points="1943.52,2211.76 2098.78,2211.76 2098.78,2040 1943.52,2040 1943.52,2080.95 1943.52,2082.48 1943.52,2125.57 2029.24,2125.57 1986.15,2082.48 2056.29,2082.48 2056.29,2169.28 1943.52,2169.28 "/>
     <polygon class="fil0" points="1936.44,1855.96 1781.19,1855.96 1781.19,2027.72 1936.44,2027.72 1936.44,1986.77 1936.44,1985.24 1936.44,1942.15 1850.73,1942.15 1893.81,1985.24 1823.67,1985.24 1823.67,1898.44 1936.44,1898.44 "/>
     <polygon class="fil0" points="1936.44,2211.76 1781.19,2211.76 1781.19,2040 1936.44,2040 1936.44,2080.95 1936.44,2082.48 1936.44,2125.57 1850.73,2125.57 1893.81,2082.48 1823.67,2082.48 1823.67,2169.28 1936.44,2169.28 "/>
    </g>
   </g>
   <g>
    <g>
     <polygon class="fil0" points="2299.76,0 2455.01,0 2455.01,171.76 2299.76,171.76 2299.76,130.81 2299.76,129.28 2299.76,86.19 2385.47,86.19 2342.39,129.28 2412.53,129.28 2412.53,42.48 2299.76,42.48 "/>
     <polygon class="fil0" points="2299.76,355.79 2455.01,355.79 2455.01,184.03 2299.76,184.03 2299.76,224.99 2299.76,226.52 2299.76,269.6 2385.47,269.6 2342.39,226.52 2412.53,226.52 2412.53,313.31 2299.76,313.31 "/>
     <polygon class="fil0" points="2292.68,0 2137.42,0 2137.42,171.76 2292.68,171.76 2292.68,130.81 2292.68,129.28 2292.68,86.19 2206.96,86.19 2250.05,129.28 2179.9,129.28 2179.9,42.48 2292.68,42.48 "/>
     <polygon class="fil0" points="2292.68,355.79 2137.42,355.79 2137.42,184.03 2292.68,184.03 2292.68,224.99 2292.68,226.52 2292.68,269.6 2206.96,269.6 2250.05,226.52 2179.9,226.52 2179.9,313.31 2292.68,313.31 "/>
    </g>
    <g>
     <polygon class="fil0" points="2299.76,371.19 2455.01,371.19 2455.01,542.95 2299.76,542.95 2299.76,502 2299.76,500.47 2299.76,457.38 2385.47,457.38 2342.39,500.47 2412.53,500.47 2412.53,413.67 2299.76,413.67 "/>
     <polygon class="fil0" points="2299.76,726.98 2455.01,726.98 2455.01,555.23 2299.76,555.23 2299.76,596.18 2299.76,597.71 2299.76,640.79 2385.47,640.79 2342.39,597.71 2412.53,597.71 2412.53,684.5 2299.76,684.5 "/>
     <polygon class="fil0" points="2292.68,371.19 2137.42,371.19 2137.42,542.95 2292.68,542.95 2292.68,502 2292.68,500.47 2292.68,457.38 2206.96,457.38 2250.05,500.47 2179.9,500.47 2179.9,413.67 2292.68,413.67 "/>
     <polygon class="fil0" points="2292.68,726.98 2137.42,726.98 2137.42,555.23 2292.68,555.23 2292.68,596.18 2292.68,597.71 2292.68,640.79 2206.96,640.79 2250.05,597.71 2179.9,597.71 2179.9,684.5 2292.68,684.5 "/>
    </g>
    <g>
     <polygon class="fil0" points="2299.76,742.38 2455.01,742.38 2455.01,914.14 2299.76,914.14 2299.76,873.19 2299.76,871.66 2299.76,828.58 2385.47,828.58 2342.39,871.66 2412.53,871.66 2412.53,784.87 2299.76,784.87 "/>
     <polygon class="fil0" points="2299.76,1098.18 2455.01,1098.18 2455.01,926.42 2299.76,926.42 2299.76,967.37 2299.76,968.9 2299.76,1011.99 2385.47,1011.99 2342.39,968.9 2412.53,968.9 2412.53,1055.7 2299.76,1055.7 "/>
     <polygon class="fil0" points="2292.68,742.38 2137.42,742.38 2137.42,914.14 2292.68,914.14 2292.68,873.19 2292.68,871.66 2292.68,828.58 2206.96,828.58 2250.05,871.66 2179.9,871.66 2179.9,784.87 2292.68,784.87 "/>
     <polygon class="fil0" points="2292.68,1098.18 2137.42,1098.18 2137.42,926.42 2292.68,926.42 2292.68,967.37 2292.68,968.9 2292.68,1011.99 2206.96,1011.99 2250.05,968.9 2179.9,968.9 2179.9,1055.7 2292.68,1055.7 "/>
    </g>
    <g>
     <polygon class="fil0" points="2299.76,1113.58 2455.01,1113.58 2455.01,1285.34 2299.76,1285.34 2299.76,1244.39 2299.76,1242.85 2299.76,1199.77 2385.47,1199.77 2342.39,1242.85 2412.53,1242.85 2412.53,1156.06 2299.76,1156.06 "/>
     <polygon class="fil0" points="2299.76,1469.37 2455.01,1469.37 2455.01,1297.61 2299.76,1297.61 2299.76,1338.56 2299.76,1340.1 2299.76,1383.18 2385.47,1383.18 2342.39,1340.1 2412.53,1340.1 2412.53,1426.89 2299.76,1426.89 "/>
     <polygon class="fil0" points="2292.68,1113.58 2137.42,1113.58 2137.42,1285.34 2292.68,1285.34 2292.68,1244.39 2292.68,1242.85 2292.68,1199.77 2206.96,1199.77 2250.05,1242.85 2179.9,1242.85 2179.9,1156.06 2292.68,1156.06 "/>
     <polygon class="fil0" points="2292.68,1469.37 2137.42,1469.37 2137.42,1297.61 2292.68,1297.61 2292.68,1338.56 2292.68,1340.1 2292.68,1383.18 2206.96,1383.18 2250.05,1340.1 2179.9,1340.1 2179.9,1426.89 2292.68,1426.89 "/>
    </g>
    <g>
     <polygon class="fil0" points="2299.76,1484.77 2455.01,1484.77 2455.01,1656.53 2299.76,1656.53 2299.76,1615.58 2299.76,1614.04 2299.76,1570.96 2385.47,1570.96 2342.39,1614.04 2412.53,1614.04 2412.53,1527.25 2299.76,1527.25 "/>
     <polygon class="fil0" points="2299.76,1840.56 2455.01,1840.56 2455.01,1668.81 2299.76,1668.81 2299.76,1709.76 2299.76,1711.29 2299.76,1754.37 2385.47,1754.37 2342.39,1711.29 2412.53,1711.29 2412.53,1798.08 2299.76,1798.08 "/>
     <polygon class="fil0" points="2292.68,1484.77 2137.42,1484.77 2137.42,1656.53 2292.68,1656.53 2292.68,1615.58 2292.68,1614.04 2292.68,1570.96 2206.96,1570.96 2250.05,1614.04 2179.9,1614.04 2179.9,1527.25 2292.68,1527.25 "/>
     <polygon class="fil0" points="2292.68,1840.56 2137.42,1840.56 2137.42,1668.81 2292.68,1668.81 2292.68,1709.76 2292.68,1711.29 2292.68,1754.37 2206.96,1754.37 2250.05,1711.29 2179.9,1711.29 2179.9,1798.08 2292.68,1798.08 "/>
    </g>
    <g>
     <polygon class="fil0" points="2299.76,1855.96 2455.01,1855.96 2455.01,2027.72 2299.76,2027.72 2299.76,1986.77 2299.76,1985.24 2299.76,1942.15 2385.47,1942.15 2342.39,1985.24 2412.53,1985.24 2412.53,1898.44 2299.76,1898.44 "/>
     <polygon class="fil0" points="2299.76,2211.76 2455.01,2211.76 2455.01,2040 2299.76,2040 2299.76,2080.95 2299.76,2082.48 2299.76,2125.57 2385.47,2125.57 2342.39,2082.48 2412.53,2082.48 2412.53,2169.28 2299.76,2169.28 "/>
     <polygon class="fil0" points="2292.68,1855.96 2137.42,1855.96 2137.42,2027.72 2292.68,2027.72 2292.68,1986.77 2292.68,1985.24 2292.68,1942.15 2206.96,1942.15 2250.05,1985.24 2179.9,1985.24 2179.9,1898.44 2292.68,1898.44 "/>
     <polygon class="fil0" points="2292.68,2211.76 2137.42,2211.76 2137.42,2040 2292.68,2040 2292.68,2080.95 2292.68,2082.48 2292.68,2125.57 2206.96,2125.57 2250.05,2082.48 2179.9,2082.48 2179.9,2169.28 2292.68,2169.28 "/>
    </g>
   </g>
   <g>
    <g>
     <polygon class="fil0" points="2655.99,0 2811.25,0 2811.25,171.76 2655.99,171.76 2655.99,130.81 2655.99,129.28 2655.99,86.19 2741.71,86.19 2698.63,129.28 2768.77,129.28 2768.77,42.48 2655.99,42.48 "/>
     <polygon class="fil0" points="2655.99,355.79 2811.25,355.79 2811.25,184.03 2655.99,184.03 2655.99,224.99 2655.99,226.52 2655.99,269.6 2741.71,269.6 2698.63,226.52 2768.77,226.52 2768.77,313.31 2655.99,313.31 "/>
     <polygon class="fil0" points="2648.92,0 2493.66,0 2493.66,171.76 2648.92,171.76 2648.92,130.81 2648.92,129.28 2648.92,86.19 2563.2,86.19 2606.29,129.28 2536.14,129.28 2536.14,42.48 2648.92,42.48 "/>
     <polygon class="fil0" points="2648.92,355.79 2493.66,355.79 2493.66,184.03 2648.92,184.03 2648.92,224.99 2648.92,226.52 2648.92,269.6 2563.2,269.6 2606.29,226.52 2536.14,226.52 2536.14,313.31 2648.92,313.31 "/>
    </g>
    <g>
     <polygon class="fil0" points="2655.99,371.19 2811.25,371.19 2811.25,542.95 2655.99,542.95 2655.99,502 2655.99,500.47 2655.99,457.38 2741.71,457.38 2698.63,500.47 2768.77,500.47 2768.77,413.67 2655.99,413.67 "/>
     <polygon class="fil0" points="2655.99,726.98 2811.25,726.98 2811.25,555.23 2655.99,555.23 2655.99,596.18 2655.99,597.71 2655.99,640.79 2741.71,640.79 2698.63,597.71 2768.77,597.71 2768.77,684.5 2655.99,684.5 "/>
     <polygon class="fil0" points="2648.92,371.19 2493.66,371.19 2493.66,542.95 2648.92,542.95 2648.92,502 2648.92,500.47 2648.92,457.38 2563.2,457.38 2606.29,500.47 2536.14,500.47 2536.14,413.67 2648.92,413.67 "/>
     <polygon class="fil0" points="2648.92,726.98 2493.66,726.98 2493.66,555.23 2648.92,555.23 2648.92,596.18 2648.92,597.71 2648.92,640.79 2563.2,640.79 2606.29,597.71 2536.14,597.71 2536.14,684.5 2648.92,684.5 "/>
    </g>
    <g>
     <polygon class="fil0" points="2655.99,742.38 2811.25,742.38 2811.25,914.14 2655.99,914.14 2655.99,873.19 2655.99,871.66 2655.99,828.58 2741.71,828.58 2698.63,871.66 2768.77,871.66 2768.77,784.87 2655.99,784.87 "/>
     <polygon class="fil0" points="2655.99,1098.18 2811.25,1098.18 2811.25,926.42 2655.99,926.42 2655.99,967.37 2655.99,968.9 2655.99,1011.99 2741.71,1011.99 2698.63,968.9 2768.77,968.9 2768.77,1055.7 2655.99,1055.7 "/>
     <polygon class="fil0" points="2648.92,742.38 2493.66,742.38 2493.66,914.14 2648.92,914.14 2648.92,873.19 2648.92,871.66 2648.92,828.58 2563.2,828.58 2606.29,871.66 2536.14,871.66 2536.14,784.87 2648.92,784.87 "/>
     <polygon class="fil0" points="2648.92,1098.18 2493.66,1098.18 2493.66,926.42 2648.92,926.42 2648.92,967.37 2648.92,968.9 2648.92,1011.99 2563.2,1011.99 2606.29,968.9 2536.14,968.9 2536.14,1055.7 2648.92,1055.7 "/>
    </g>
    <g>
     <polygon class="fil0" points="2655.99,1113.58 2811.25,1113.58 2811.25,1285.34 2655.99,1285.34 2655.99,1244.39 2655.99,1242.85 2655.99,1199.77 2741.71,1199.77 2698.63,1242.85 2768.77,1242.85 2768.77,1156.06 2655.99,1156.06 "/>
     <polygon class="fil0" points="2655.99,1469.37 2811.25,1469.37 2811.25,1297.61 2655.99,1297.61 2655.99,1338.56 2655.99,1340.1 2655.99,1383.18 2741.71,1383.18 2698.63,1340.1 2768.77,1340.1 2768.77,1426.89 2655.99,1426.89 "/>
     <polygon class="fil0" points="2648.92,1113.58 2493.66,1113.58 2493.66,1285.34 2648.92,1285.34 2648.92,1244.39 2648.92,1242.85 2648.92,1199.77 2563.2,1199.77 2606.29,1242.85 2536.14,1242.85 2536.14,1156.06 2648.92,1156.06 "/>
     <polygon class="fil0" points="2648.92,1469.37 2493.66,1469.37 2493.66,1297.61 2648.92,1297.61 2648.92,1338.56 2648.92,1340.1 2648.92,1383.18 2563.2,1383.18 2606.29,1340.1 2536.14,1340.1 2536.14,1426.89 2648.92,1426.89 "/>
    </g>
    <g>
     <polygon class="fil0" points="2655.99,1484.77 2811.25,1484.77 2811.25,1656.53 2655.99,1656.53 2655.99,1615.58 2655.99,1614.04 2655.99,1570.96 2741.71,1570.96 2698.63,1614.04 2768.77,1614.04 2768.77,1527.25 2655.99,1527.25 "/>
     <polygon class="fil0" points="2655.99,1840.56 2811.25,1840.56 2811.25,1668.81 2655.99,1668.81 2655.99,1709.76 2655.99,1711.29 2655.99,1754.37 2741.71,1754.37 2698.63,1711.29 2768.77,1711.29 2768.77,1798.08 2655.99,1798.08 "/>
     <polygon class="fil0" points="2648.92,1484.77 2493.66,1484.77 2493.66,1656.53 2648.92,1656.53 2648.92,1615.58 2648.92,1614.04 2648.92,1570.96 2563.2,1570.96 2606.29,1614.04 2536.14,1614.04 2536.14,1527.25 2648.92,1527.25 "/>
     <polygon class="fil0" points="2648.92,1840.56 2493.66,1840.56 2493.66,1668.81 2648.92,1668.81 2648.92,1709.76 2648.92,1711.29 2648.92,1754.37 2563.2,1754.37 2606.29,1711.29 2536.14,1711.29 2536.14,1798.08 2648.92,1798.08 "/>
    </g>
    <g>
     <polygon class="fil0" points="2655.99,1855.96 2811.25,1855.96 2811.25,2027.72 2655.99,2027.72 2655.99,1986.77 2655.99,1985.24 2655.99,1942.15 2741.71,1942.15 2698.63,1985.24 2768.77,1985.24 2768.77,1898.44 2655.99,1898.44 "/>
     <polygon class="fil0" points="2655.99,2211.76 2811.25,2211.76 2811.25,2040 2655.99,2040 2655.99,2080.95 2655.99,2082.48 2655.99,2125.57 2741.71,2125.57 2698.63,2082.48 2768.77,2082.48 2768.77,2169.28 2655.99,2169.28 "/>
     <polygon class="fil0" points="2648.92,1855.96 2493.66,1855.96 2493.66,2027.72 2648.92,2027.72 2648.92,1986.77 2648.92,1985.24 2648.92,1942.15 2563.2,1942.15 2606.29,1985.24 2536.14,1985.24 2536.14,1898.44 2648.92,1898.44 "/>
     <polygon class="fil0" points="2648.92,2211.76 2493.66,2211.76 2493.66,2040 2648.92,2040 2648.92,2080.95 2648.92,2082.48 2648.92,2125.57 2563.2,2125.57 2606.29,2082.48 2536.14,2082.48 2536.14,2169.28 2648.92,2169.28 "/>
    </g>
   </g>
  </g>
 </g>
</svg>
